<svg width="50" height="18" viewBox="0 0 50 18" fill="none" xmlns="http://www.w3.org/2000/svg">
<path d="M15.75 7.70096C16.75 8.27831 16.75 9.72169 15.75 10.299L6.75 15.4952C5.75 16.0725 4.5 15.3509 4.5 14.1962L4.5 3.80384C4.5 2.64914 5.75 1.92746 6.75 2.50481L15.75 7.70096Z" fill="url(#paint0_linear_6_220)"/>
<path d="M24.2827 9.95898H22.1089V8.58789H24.2827C24.6187 8.58789 24.8921 8.5332 25.103 8.42383C25.314 8.31055 25.4683 8.1543 25.5659 7.95508C25.6636 7.75586 25.7124 7.53125 25.7124 7.28125C25.7124 7.02734 25.6636 6.79102 25.5659 6.57227C25.4683 6.35352 25.314 6.17773 25.103 6.04492C24.8921 5.91211 24.6187 5.8457 24.2827 5.8457H22.7183V13H20.9605V4.46875H24.2827C24.9507 4.46875 25.523 4.58984 25.9995 4.83203C26.48 5.07031 26.8472 5.40039 27.1011 5.82227C27.355 6.24414 27.482 6.72656 27.482 7.26953C27.482 7.82031 27.355 8.29688 27.1011 8.69922C26.8472 9.10156 26.48 9.41211 25.9995 9.63086C25.523 9.84961 24.9507 9.95898 24.2827 9.95898ZM34.3592 11.6289V13H30.0643V11.6289H34.3592ZM30.6327 4.46875V13H28.8748V4.46875H30.6327ZM39.133 5.92773L36.8127 13H34.9435L38.1134 4.46875H39.3029L39.133 5.92773ZM41.0607 13L38.7345 5.92773L38.547 4.46875H39.7482L42.9357 13H41.0607ZM40.9552 9.82422V11.2012H36.4494V9.82422H40.9552ZM44.3052 4.46875L46.0864 8.35938L47.8677 4.46875H49.7837L46.977 9.89453V13H45.1958V9.89453L42.3833 4.46875H44.3052Z" fill="#4183CE"/>
<defs>
<linearGradient id="paint0_linear_6_220" x1="11.8636" y1="12.6818" x2="6.13636" y2="3.27273" gradientUnits="userSpaceOnUse">
<stop stop-color="#4085CD"/>
<stop offset="1" stop-color="#70A1FF"/>
</linearGradient>
</defs>
</svg>
